<svg width="413" height="412" viewBox="0 0 413 412" fill="none" xmlns="http://www.w3.org/2000/svg">
<rect width="413" height="412" rx="50" fill="url(#paint0_linear_9390_21224)"/>
<path d="M185.262 169.125C166.96 183.813 158.331 204.974 155.091 214.942C161.034 232.368 170.308 259.564 170.308 259.564C170.308 259.564 193.472 273.156 208.315 281.865C204.684 280.262 191.325 244.965 201.016 221.479C212.265 194.22 260.455 173.639 263.767 175.319C268.028 177.481 278.496 232.745 260.029 257.087C245.94 275.656 211.011 283.447 208.315 281.865C193.472 273.156 170.308 259.564 170.308 259.564C170.308 259.564 161.034 232.368 155.091 214.942C141.893 190.786 136.718 178.052 129.328 151.554C123.7 131.374 116.765 85.6948 116.765 85.6948C116.765 85.6948 116.469 83.0001 115.131 83C113.792 82.9999 113.069 85.6949 113.069 85.6949C113.069 85.6949 84.625 143.457 108.625 217.442C133.547 294.254 181.062 327.93 185.262 328.943C188.315 329.679 263.647 323.728 293.051 287.44C338.727 231.07 295.97 120.921 292.663 119.904C289.356 118.886 226.383 136.122 185.262 169.125Z" fill="white"/>
<defs>
<linearGradient id="paint0_linear_9390_21224" x1="42.7241" y1="375.693" x2="389.162" y2="6.2652" gradientUnits="userSpaceOnUse">
<stop stop-color="#37625A"/>
<stop offset="1" stop-color="#60978C"/>
</linearGradient>
</defs>
</svg>
